<svg width="32" height="32" viewBox="0 0 32 32" xmlns="http://www.w3.org/2000/svg">
<path d="M0 31.5433C0.435512 30.2367 0.845778 29.0122 1.25604 27.7878C1.66631 26.5759 2.03239 25.3451 2.49946 24.1522C2.73931 23.5462 2.66357 23.0918 2.3606 22.5237C0.706919 19.4562 0.2146 16.1678 0.788972 12.7468C1.27498 9.8497 2.50577 7.28712 4.49398 5.10955C7.76979 1.53078 11.8598 -0.186023 16.6946 0.0159538C20.2355 0.161125 23.3662 1.45504 26.0361 3.79671C28.5229 5.97427 30.145 8.68202 30.8961 11.901C31.5021 14.4952 31.4326 17.0767 30.6878 19.6329C29.7411 22.8709 27.9296 25.5408 25.2345 27.5732C21.4916 30.4008 17.2943 31.2782 12.7182 30.3882C11.3423 30.1231 10.0294 29.6308 8.7923 28.9617C8.59032 28.8544 8.4199 28.8292 8.19899 28.9049C5.85101 29.6623 3.49672 30.4134 1.14874 31.1645C0.795283 31.2782 0.435512 31.3981 0 31.5433ZM3.99535 27.5858C4.12159 27.5542 4.17839 27.5416 4.2352 27.5227C5.70584 27.0556 7.17649 26.5822 8.65344 26.1278C8.7923 26.0836 8.98165 26.1214 9.1142 26.1846C9.75169 26.5001 10.3639 26.8789 11.0204 27.1566C13.7218 28.299 16.5053 28.482 19.3203 27.6994C22.6782 26.7589 25.2534 24.7581 27.0144 21.7348C28.5229 19.1469 29.0405 16.3508 28.5734 13.4095C27.9801 9.66665 26.0613 6.72537 22.8865 4.63617C20.1346 2.831 17.1049 2.21876 13.8733 2.73002C11.0898 3.17184 8.71025 4.44051 6.74728 6.4729C5.06204 8.21495 3.93223 10.2726 3.43992 12.6395C2.73931 16.0289 3.25687 19.2353 5.13778 22.1576C5.51649 22.7446 5.50387 23.1928 5.27664 23.7924C4.81588 25.0232 4.43086 26.2792 3.99535 27.5858Z" fill="currentColor"/>
<path d="M23.8896 19.7968C23.8706 21.015 23.2963 21.9428 22.1349 22.5235C20.9925 23.0916 19.8311 23.2367 18.6382 22.7697C17.5652 22.3468 16.4796 21.9365 15.4444 21.4253C14.0811 20.7499 12.9639 19.74 11.9414 18.6228C10.8116 17.3857 9.85219 16.0098 9.06322 14.5391C8.50147 13.4977 8.16064 12.3931 8.28056 11.1813C8.40679 9.89366 9.00641 8.86484 10.0163 8.08849C10.2183 7.93701 10.5212 7.86758 10.78 7.84233C11.1145 7.81708 11.4491 7.86758 11.7836 7.89282C12.0613 7.91807 12.2128 8.11374 12.3075 8.34096C12.5536 8.94689 12.7745 9.55282 13.0081 10.1651C13.1659 10.5753 13.2858 11.0045 13.4751 11.4022C13.7087 11.8945 13.5635 12.3048 13.2605 12.6835C13.0018 13.0054 12.7304 13.3146 12.4337 13.5924C12.1875 13.8259 12.1434 14.0657 12.3075 14.3498C13.0333 15.6437 13.917 16.805 15.0846 17.7455C15.8547 18.3641 16.7068 18.8248 17.5904 19.254C17.8492 19.3803 18.1017 19.3613 18.3037 19.1278C18.7392 18.6292 19.181 18.1368 19.6102 17.6319C19.8879 17.31 20.0268 17.2469 20.3992 17.4362C21.4785 17.979 22.5452 18.5408 23.6182 19.1025C23.8706 19.2414 23.9338 19.4686 23.8896 19.7968Z" fill="currentColor"/>
</svg>
