<svg width="14" height="11" viewBox="0 0 14 11" xmlns="http://www.w3.org/2000/svg">
<path d="M13.8768 0.657738V3.13966C12.6358 3.02746 11.1692 3.36591 10.6051 4.38124C13.3127 4.26843 14.1024 6.07346 13.9896 7.54005C13.8535 9.3089 12.3036 10.2476 11.282 10.2476C10.2667 10.2476 7.67148 9.95368 7.67194 5.62159C7.67238 1.43945 11.8085 0.507318 13.8768 0.657738Z" fill="currentColor"/>
<path d="M6.20482 0.657616V3.13954C4.96385 3.02734 3.49726 3.36579 2.93319 4.38112C5.64074 4.2683 6.43044 6.07334 6.31763 7.53993C6.18156 9.30878 4.63166 10.2475 3.61007 10.2475C2.59474 10.2475 -0.000456361 9.95356 0 5.62147C0.000440683 1.43933 4.13654 0.507196 6.20482 0.657616Z" fill="currentColor"/>
</svg>
