<svg width="9" height="15" viewBox="0 0 9 15" xmlns="http://www.w3.org/2000/svg">
<path d="M8.3643 12.6335L8.37863 12.4595C8.41049 12.0523 8.17593 11.5136 7.85678 11.262L6.6767 10.3284C6.35651 10.0757 5.78348 9.98812 5.40566 10.1402L4.71649 10.4177C3.16212 9.19495 2.37139 7.2309 2.64535 5.27284L3.33455 4.99536C3.71238 4.84324 4.06457 4.38373 4.12029 3.97961L4.32518 2.4884C4.38062 2.08494 4.17575 1.53368 3.87074 1.26376L3.74012 1.14758C3.43443 0.877379 2.87543 0.780892 2.49764 0.932998L1.46644 1.34873C1.28256 1.4222 1.0435 1.75452 1.04293 1.75586C0.0400184 4.04051 -0.00181573 6.63538 0.930332 8.95063C1.8602 11.2602 3.68067 13.0973 5.97765 14.0528C5.98962 14.0579 6.40235 14.1377 6.58624 14.0642L7.61715 13.6491C7.99493 13.497 8.33109 13.0401 8.3643 12.6335Z" fill="currentColor"/>
</svg>
