<svg width="32" height="32" viewBox="0 0 32 32" fill="none" xmlns="http://www.w3.org/2000/svg">
<path fill-rule="evenodd" clip-rule="evenodd" d="M32.0002 16.1483C32.0002 24.7933 24.992 31.8015 16.347 31.8015C7.70198 31.8015 0.693787 24.7933 0.693787 16.1483C0.693787 7.50331 7.70198 0.495117 16.347 0.495117C24.992 0.495117 32.0002 7.50331 32.0002 16.1483ZM11.1759 14.7144C9.60782 15.399 7.99672 16.1025 6.52346 16.914C5.75418 17.4773 6.77661 17.8757 7.73583 18.2494C7.88832 18.3088 8.03918 18.3676 8.18104 18.4263C8.29909 18.4626 8.4191 18.5009 8.54073 18.5396C9.60756 18.8795 10.7971 19.2585 11.8328 18.6884C13.5342 17.711 15.1397 16.5811 16.7441 15.4521C17.2697 15.0821 17.7952 14.7123 18.3239 14.348C18.3487 14.3321 18.3766 14.314 18.4072 14.2943C18.8576 14.0023 19.8705 13.3457 19.4958 14.2504C18.6098 15.2194 17.6608 16.077 16.7067 16.9394C16.0636 17.5206 15.4182 18.104 14.7881 18.7249C14.2394 19.1707 13.6696 20.0674 14.284 20.6917C15.6993 21.6824 17.1366 22.6491 18.5731 23.6153C19.0406 23.9297 19.508 24.2441 19.9745 24.5592C20.7651 25.1904 22.0007 24.6798 22.1745 23.6935C22.2518 23.2397 22.3294 22.786 22.407 22.3323C22.8359 19.8247 23.265 17.3162 23.644 14.8005C23.6955 14.4059 23.7539 14.0113 23.8123 13.6165C23.9539 12.6596 24.0957 11.7016 24.14 10.7395C24.0259 9.77948 22.8618 9.99061 22.214 10.2065C18.8843 11.4735 15.5879 12.8344 12.3045 14.2193C11.9325 14.3841 11.5555 14.5487 11.1759 14.7144Z" fill="#31A6D8"/>
</svg>
